<?xml version="1.0" encoding="utf-8" standalone="no"?>
<!DOCTYPE svg PUBLIC "-//W3C//DTD SVG 1.1//EN"
  "http://www.w3.org/Graphics/SVG/1.1/DTD/svg11.dtd">
<!-- Created with matplotlib (http://matplotlib.org/) -->
<svg height="252.018125pt" version="1.1" viewBox="0 0 378.7875 252.018125" width="378.7875pt" xmlns="http://www.w3.org/2000/svg" xmlns:xlink="http://www.w3.org/1999/xlink">
 <defs>
  <style type="text/css">
*{stroke-linecap:butt;stroke-linejoin:round;}
  </style>
 </defs>
 <g id="figure_1">
  <g id="patch_1">
   <path d="M 0 252.018125
L 378.7875 252.018125
L 378.7875 0
L 0 0
z
" style="fill:none;"/>
  </g>
  <g id="axes_1">
   <g id="patch_2">
    <path d="M 33.2875 228.14
L 368.0875 228.14
L 368.0875 10.7
L 33.2875 10.7
z
" style="fill:#ffffff;"/>
   </g>
   <g id="patch_3">
    <path clip-path="url(#pe64681dc40)" d="M 48.505682 228.14
L 50.0275 228.14
L 50.0275 227.541486
L 48.505682 227.541486
z
" style="fill:#1f77b4;"/>
   </g>
   <g id="patch_4">
    <path clip-path="url(#pe64681dc40)" d="M 50.0275 228.14
L 51.549318 228.14
L 51.549318 228.14
L 50.0275 228.14
z
" style="fill:#1f77b4;"/>
   </g>
   <g id="patch_5">
    <path clip-path="url(#pe64681dc40)" d="M 51.549318 228.14
L 53.071136 228.14
L 53.071136 228.14
L 51.549318 228.14
z
" style="fill:#1f77b4;"/>
   </g>
   <g id="patch_6">
    <path clip-path="url(#pe64681dc40)" d="M 53.071136 228.14
L 54.592955 228.14
L 54.592955 228.14
L 53.071136 228.14
z
" style="fill:#1f77b4;"/>
   </g>
   <g id="patch_7">
    <path clip-path="url(#pe64681dc40)" d="M 54.592955 228.14
L 56.114773 228.14
L 56.114773 228.14
L 54.592955 228.14
z
" style="fill:#1f77b4;"/>
   </g>
   <g id="patch_8">
    <path clip-path="url(#pe64681dc40)" d="M 56.114773 228.14
L 57.636591 228.14
L 57.636591 228.14
L 56.114773 228.14
z
" style="fill:#1f77b4;"/>
   </g>
   <g id="patch_9">
    <path clip-path="url(#pe64681dc40)" d="M 57.636591 228.14
L 59.158409 228.14
L 59.158409 228.14
L 57.636591 228.14
z
" style="fill:#1f77b4;"/>
   </g>
   <g id="patch_10">
    <path clip-path="url(#pe64681dc40)" d="M 59.158409 228.14
L 60.680227 228.14
L 60.680227 226.344459
L 59.158409 226.344459
z
" style="fill:#1f77b4;"/>
   </g>
   <g id="patch_11">
    <path clip-path="url(#pe64681dc40)" d="M 60.680227 228.14
L 62.202045 228.14
L 62.202045 226.942973
L 60.680227 226.942973
z
" style="fill:#1f77b4;"/>
   </g>
   <g id="patch_12">
    <path clip-path="url(#pe64681dc40)" d="M 62.202045 228.14
L 63.723864 228.14
L 63.723864 226.942973
L 62.202045 226.942973
z
" style="fill:#1f77b4;"/>
   </g>
   <g id="patch_13">
    <path clip-path="url(#pe64681dc40)" d="M 63.723864 228.14
L 65.245682 228.14
L 65.245682 226.942973
L 63.723864 226.942973
z
" style="fill:#1f77b4;"/>
   </g>
   <g id="patch_14">
    <path clip-path="url(#pe64681dc40)" d="M 65.245682 228.14
L 66.7675 228.14
L 66.7675 226.344459
L 65.245682 226.344459
z
" style="fill:#1f77b4;"/>
   </g>
   <g id="patch_15">
    <path clip-path="url(#pe64681dc40)" d="M 66.7675 228.14
L 68.289318 228.14
L 68.289318 226.344459
L 66.7675 226.344459
z
" style="fill:#1f77b4;"/>
   </g>
   <g id="patch_16">
    <path clip-path="url(#pe64681dc40)" d="M 68.289318 228.14
L 69.811136 228.14
L 69.811136 225.745945
L 68.289318 225.745945
z
" style="fill:#1f77b4;"/>
   </g>
   <g id="patch_17">
    <path clip-path="url(#pe64681dc40)" d="M 69.811136 228.14
L 71.332955 228.14
L 71.332955 225.147432
L 69.811136 225.147432
z
" style="fill:#1f77b4;"/>
   </g>
   <g id="patch_18">
    <path clip-path="url(#pe64681dc40)" d="M 71.332955 228.14
L 72.854773 228.14
L 72.854773 223.351891
L 71.332955 223.351891
z
" style="fill:#1f77b4;"/>
   </g>
   <g id="patch_19">
    <path clip-path="url(#pe64681dc40)" d="M 72.854773 228.14
L 74.376591 228.14
L 74.376591 225.745945
L 72.854773 225.745945
z
" style="fill:#1f77b4;"/>
   </g>
   <g id="patch_20">
    <path clip-path="url(#pe64681dc40)" d="M 74.376591 228.14
L 75.898409 228.14
L 75.898409 224.548918
L 74.376591 224.548918
z
" style="fill:#1f77b4;"/>
   </g>
   <g id="patch_21">
    <path clip-path="url(#pe64681dc40)" d="M 75.898409 228.14
L 77.420227 228.14
L 77.420227 226.942973
L 75.898409 226.942973
z
" style="fill:#1f77b4;"/>
   </g>
   <g id="patch_22">
    <path clip-path="url(#pe64681dc40)" d="M 77.420227 228.14
L 78.942045 228.14
L 78.942045 224.548918
L 77.420227 224.548918
z
" style="fill:#1f77b4;"/>
   </g>
   <g id="patch_23">
    <path clip-path="url(#pe64681dc40)" d="M 78.942045 228.14
L 80.463864 228.14
L 80.463864 226.942973
L 78.942045 226.942973
z
" style="fill:#1f77b4;"/>
   </g>
   <g id="patch_24">
    <path clip-path="url(#pe64681dc40)" d="M 80.463864 228.14
L 81.985682 228.14
L 81.985682 224.548918
L 80.463864 224.548918
z
" style="fill:#1f77b4;"/>
   </g>
   <g id="patch_25">
    <path clip-path="url(#pe64681dc40)" d="M 81.985682 228.14
L 83.5075 228.14
L 83.5075 222.753377
L 81.985682 222.753377
z
" style="fill:#1f77b4;"/>
   </g>
   <g id="patch_26">
    <path clip-path="url(#pe64681dc40)" d="M 83.5075 228.14
L 85.029318 228.14
L 85.029318 220.957836
L 83.5075 220.957836
z
" style="fill:#1f77b4;"/>
   </g>
   <g id="patch_27">
    <path clip-path="url(#pe64681dc40)" d="M 85.029318 228.14
L 86.551136 228.14
L 86.551136 223.950405
L 85.029318 223.950405
z
" style="fill:#1f77b4;"/>
   </g>
   <g id="patch_28">
    <path clip-path="url(#pe64681dc40)" d="M 86.551136 228.14
L 88.072955 228.14
L 88.072955 221.55635
L 86.551136 221.55635
z
" style="fill:#1f77b4;"/>
   </g>
   <g id="patch_29">
    <path clip-path="url(#pe64681dc40)" d="M 88.072955 228.14
L 89.594773 228.14
L 89.594773 217.965268
L 88.072955 217.965268
z
" style="fill:#1f77b4;"/>
   </g>
   <g id="patch_30">
    <path clip-path="url(#pe64681dc40)" d="M 89.594773 228.14
L 91.116591 228.14
L 91.116591 219.760809
L 89.594773 219.760809
z
" style="fill:#1f77b4;"/>
   </g>
   <g id="patch_31">
    <path clip-path="url(#pe64681dc40)" d="M 91.116591 228.14
L 92.638409 228.14
L 92.638409 217.366755
L 91.116591 217.366755
z
" style="fill:#1f77b4;"/>
   </g>
   <g id="patch_32">
    <path clip-path="url(#pe64681dc40)" d="M 92.638409 228.14
L 94.160227 228.14
L 94.160227 217.965268
L 92.638409 217.965268
z
" style="fill:#1f77b4;"/>
   </g>
   <g id="patch_33">
    <path clip-path="url(#pe64681dc40)" d="M 94.160227 228.14
L 95.682045 228.14
L 95.682045 219.760809
L 94.160227 219.760809
z
" style="fill:#1f77b4;"/>
   </g>
   <g id="patch_34">
    <path clip-path="url(#pe64681dc40)" d="M 95.682045 228.14
L 97.203864 228.14
L 97.203864 219.760809
L 95.682045 219.760809
z
" style="fill:#1f77b4;"/>
   </g>
   <g id="patch_35">
    <path clip-path="url(#pe64681dc40)" d="M 97.203864 228.14
L 98.725682 228.14
L 98.725682 213.775673
L 97.203864 213.775673
z
" style="fill:#1f77b4;"/>
   </g>
   <g id="patch_36">
    <path clip-path="url(#pe64681dc40)" d="M 98.725682 228.14
L 100.2475 228.14
L 100.2475 211.381618
L 98.725682 211.381618
z
" style="fill:#1f77b4;"/>
   </g>
   <g id="patch_37">
    <path clip-path="url(#pe64681dc40)" d="M 100.2475 228.14
L 101.769318 228.14
L 101.769318 208.38905
L 100.2475 208.38905
z
" style="fill:#1f77b4;"/>
   </g>
   <g id="patch_38">
    <path clip-path="url(#pe64681dc40)" d="M 101.769318 228.14
L 103.291136 228.14
L 103.291136 211.980132
L 101.769318 211.980132
z
" style="fill:#1f77b4;"/>
   </g>
   <g id="patch_39">
    <path clip-path="url(#pe64681dc40)" d="M 103.291136 228.14
L 104.812955 228.14
L 104.812955 215.571214
L 103.291136 215.571214
z
" style="fill:#1f77b4;"/>
   </g>
   <g id="patch_40">
    <path clip-path="url(#pe64681dc40)" d="M 104.812955 228.14
L 106.334773 228.14
L 106.334773 202.403914
L 104.812955 202.403914
z
" style="fill:#1f77b4;"/>
   </g>
   <g id="patch_41">
    <path clip-path="url(#pe64681dc40)" d="M 106.334773 228.14
L 107.856591 228.14
L 107.856591 201.206887
L 106.334773 201.206887
z
" style="fill:#1f77b4;"/>
   </g>
   <g id="patch_42">
    <path clip-path="url(#pe64681dc40)" d="M 107.856591 228.14
L 109.378409 228.14
L 109.378409 200.608373
L 107.856591 200.608373
z
" style="fill:#1f77b4;"/>
   </g>
   <g id="patch_43">
    <path clip-path="url(#pe64681dc40)" d="M 109.378409 228.14
L 110.900227 228.14
L 110.900227 198.214319
L 109.378409 198.214319
z
" style="fill:#1f77b4;"/>
   </g>
   <g id="patch_44">
    <path clip-path="url(#pe64681dc40)" d="M 110.900227 228.14
L 112.422045 228.14
L 112.422045 204.199455
L 110.900227 204.199455
z
" style="fill:#1f77b4;"/>
   </g>
   <g id="patch_45">
    <path clip-path="url(#pe64681dc40)" d="M 112.422045 228.14
L 113.943864 228.14
L 113.943864 191.630669
L 112.422045 191.630669
z
" style="fill:#1f77b4;"/>
   </g>
   <g id="patch_46">
    <path clip-path="url(#pe64681dc40)" d="M 113.943864 228.14
L 115.465682 228.14
L 115.465682 194.024723
L 113.943864 194.024723
z
" style="fill:#1f77b4;"/>
   </g>
   <g id="patch_47">
    <path clip-path="url(#pe64681dc40)" d="M 115.465682 228.14
L 116.9875 228.14
L 116.9875 187.441073
L 115.465682 187.441073
z
" style="fill:#1f77b4;"/>
   </g>
   <g id="patch_48">
    <path clip-path="url(#pe64681dc40)" d="M 116.9875 228.14
L 118.509318 228.14
L 118.509318 185.047019
L 116.9875 185.047019
z
" style="fill:#1f77b4;"/>
   </g>
   <g id="patch_49">
    <path clip-path="url(#pe64681dc40)" d="M 118.509318 228.14
L 120.031136 228.14
L 120.031136 186.84256
L 118.509318 186.84256
z
" style="fill:#1f77b4;"/>
   </g>
   <g id="patch_50">
    <path clip-path="url(#pe64681dc40)" d="M 120.031136 228.14
L 121.552955 228.14
L 121.552955 186.244046
L 120.031136 186.244046
z
" style="fill:#1f77b4;"/>
   </g>
   <g id="patch_51">
    <path clip-path="url(#pe64681dc40)" d="M 121.552955 228.14
L 123.074773 228.14
L 123.074773 177.864855
L 121.552955 177.864855
z
" style="fill:#1f77b4;"/>
   </g>
   <g id="patch_52">
    <path clip-path="url(#pe64681dc40)" d="M 123.074773 228.14
L 124.596591 228.14
L 124.596591 183.251478
L 123.074773 183.251478
z
" style="fill:#1f77b4;"/>
   </g>
   <g id="patch_53">
    <path clip-path="url(#pe64681dc40)" d="M 124.596591 228.14
L 126.118409 228.14
L 126.118409 172.478233
L 124.596591 172.478233
z
" style="fill:#1f77b4;"/>
   </g>
   <g id="patch_54">
    <path clip-path="url(#pe64681dc40)" d="M 126.118409 228.14
L 127.640227 228.14
L 127.640227 173.67526
L 126.118409 173.67526
z
" style="fill:#1f77b4;"/>
   </g>
   <g id="patch_55">
    <path clip-path="url(#pe64681dc40)" d="M 127.640227 228.14
L 129.162045 228.14
L 129.162045 158.712419
L 127.640227 158.712419
z
" style="fill:#1f77b4;"/>
   </g>
   <g id="patch_56">
    <path clip-path="url(#pe64681dc40)" d="M 129.162045 228.14
L 130.683864 228.14
L 130.683864 166.493097
L 129.162045 166.493097
z
" style="fill:#1f77b4;"/>
   </g>
   <g id="patch_57">
    <path clip-path="url(#pe64681dc40)" d="M 130.683864 228.14
L 132.205682 228.14
L 132.205682 162.902015
L 130.683864 162.902015
z
" style="fill:#1f77b4;"/>
   </g>
   <g id="patch_58">
    <path clip-path="url(#pe64681dc40)" d="M 132.205682 228.14
L 133.7275 228.14
L 133.7275 153.325797
L 132.205682 153.325797
z
" style="fill:#1f77b4;"/>
   </g>
   <g id="patch_59">
    <path clip-path="url(#pe64681dc40)" d="M 133.7275 228.14
L 135.249318 228.14
L 135.249318 147.340661
L 133.7275 147.340661
z
" style="fill:#1f77b4;"/>
   </g>
   <g id="patch_60">
    <path clip-path="url(#pe64681dc40)" d="M 135.249318 228.14
L 136.771136 228.14
L 136.771136 147.939174
L 135.249318 147.939174
z
" style="fill:#1f77b4;"/>
   </g>
   <g id="patch_61">
    <path clip-path="url(#pe64681dc40)" d="M 136.771136 228.14
L 138.292955 228.14
L 138.292955 154.522824
L 136.771136 154.522824
z
" style="fill:#1f77b4;"/>
   </g>
   <g id="patch_62">
    <path clip-path="url(#pe64681dc40)" d="M 138.292955 228.14
L 139.814773 228.14
L 139.814773 142.552552
L 138.292955 142.552552
z
" style="fill:#1f77b4;"/>
   </g>
   <g id="patch_63">
    <path clip-path="url(#pe64681dc40)" d="M 139.814773 228.14
L 141.336591 228.14
L 141.336591 141.355524
L 139.814773 141.355524
z
" style="fill:#1f77b4;"/>
   </g>
   <g id="patch_64">
    <path clip-path="url(#pe64681dc40)" d="M 141.336591 228.14
L 142.858409 228.14
L 142.858409 130.582279
L 141.336591 130.582279
z
" style="fill:#1f77b4;"/>
   </g>
   <g id="patch_65">
    <path clip-path="url(#pe64681dc40)" d="M 142.858409 228.14
L 144.380227 228.14
L 144.380227 117.414979
L 142.858409 117.414979
z
" style="fill:#1f77b4;"/>
   </g>
   <g id="patch_66">
    <path clip-path="url(#pe64681dc40)" d="M 144.380227 228.14
L 145.902045 228.14
L 145.902045 118.013493
L 144.380227 118.013493
z
" style="fill:#1f77b4;"/>
   </g>
   <g id="patch_67">
    <path clip-path="url(#pe64681dc40)" d="M 145.902045 228.14
L 147.423864 228.14
L 147.423864 117.414979
L 145.902045 117.414979
z
" style="fill:#1f77b4;"/>
   </g>
   <g id="patch_68">
    <path clip-path="url(#pe64681dc40)" d="M 147.423864 228.14
L 148.945682 228.14
L 148.945682 107.838761
L 147.423864 107.838761
z
" style="fill:#1f77b4;"/>
   </g>
   <g id="patch_69">
    <path clip-path="url(#pe64681dc40)" d="M 148.945682 228.14
L 150.4675 228.14
L 150.4675 96.467002
L 148.945682 96.467002
z
" style="fill:#1f77b4;"/>
   </g>
   <g id="patch_70">
    <path clip-path="url(#pe64681dc40)" d="M 150.4675 228.14
L 151.989318 228.14
L 151.989318 104.24768
L 150.4675 104.24768
z
" style="fill:#1f77b4;"/>
   </g>
   <g id="patch_71">
    <path clip-path="url(#pe64681dc40)" d="M 151.989318 228.14
L 153.511136 228.14
L 153.511136 83.898216
L 151.989318 83.898216
z
" style="fill:#1f77b4;"/>
   </g>
   <g id="patch_72">
    <path clip-path="url(#pe64681dc40)" d="M 153.511136 228.14
L 155.032955 228.14
L 155.032955 104.24768
L 153.511136 104.24768
z
" style="fill:#1f77b4;"/>
   </g>
   <g id="patch_73">
    <path clip-path="url(#pe64681dc40)" d="M 155.032955 228.14
L 156.554773 228.14
L 156.554773 68.935376
L 155.032955 68.935376
z
" style="fill:#1f77b4;"/>
   </g>
   <g id="patch_74">
    <path clip-path="url(#pe64681dc40)" d="M 156.554773 228.14
L 158.076591 228.14
L 158.076591 94.671462
L 156.554773 94.671462
z
" style="fill:#1f77b4;"/>
   </g>
   <g id="patch_75">
    <path clip-path="url(#pe64681dc40)" d="M 158.076591 228.14
L 159.598409 228.14
L 159.598409 91.08038
L 158.076591 91.08038
z
" style="fill:#1f77b4;"/>
   </g>
   <g id="patch_76">
    <path clip-path="url(#pe64681dc40)" d="M 159.598409 228.14
L 161.120227 228.14
L 161.120227 74.920512
L 159.598409 74.920512
z
" style="fill:#1f77b4;"/>
   </g>
   <g id="patch_77">
    <path clip-path="url(#pe64681dc40)" d="M 161.120227 228.14
L 162.642045 228.14
L 162.642045 68.336862
L 161.120227 68.336862
z
" style="fill:#1f77b4;"/>
   </g>
   <g id="patch_78">
    <path clip-path="url(#pe64681dc40)" d="M 162.642045 228.14
L 164.163864 228.14
L 164.163864 72.526457
L 162.642045 72.526457
z
" style="fill:#1f77b4;"/>
   </g>
   <g id="patch_79">
    <path clip-path="url(#pe64681dc40)" d="M 164.163864 228.14
L 165.685682 228.14
L 165.685682 71.32943
L 164.163864 71.32943
z
" style="fill:#1f77b4;"/>
   </g>
   <g id="patch_80">
    <path clip-path="url(#pe64681dc40)" d="M 165.685682 228.14
L 167.2075 228.14
L 167.2075 70.730917
L 165.685682 70.730917
z
" style="fill:#1f77b4;"/>
   </g>
   <g id="patch_81">
    <path clip-path="url(#pe64681dc40)" d="M 167.2075 228.14
L 168.729318 228.14
L 168.729318 52.176994
L 167.2075 52.176994
z
" style="fill:#1f77b4;"/>
   </g>
   <g id="patch_82">
    <path clip-path="url(#pe64681dc40)" d="M 168.729318 228.14
L 170.251136 228.14
L 170.251136 59.359158
L 168.729318 59.359158
z
" style="fill:#1f77b4;"/>
   </g>
   <g id="patch_83">
    <path clip-path="url(#pe64681dc40)" d="M 170.251136 228.14
L 171.772955 228.14
L 171.772955 49.184426
L 170.251136 49.184426
z
" style="fill:#1f77b4;"/>
   </g>
   <g id="patch_84">
    <path clip-path="url(#pe64681dc40)" d="M 171.772955 228.14
L 173.294773 228.14
L 173.294773 37.214154
L 171.772955 37.214154
z
" style="fill:#1f77b4;"/>
   </g>
   <g id="patch_85">
    <path clip-path="url(#pe64681dc40)" d="M 173.294773 228.14
L 174.816591 228.14
L 174.816591 42.600776
L 173.294773 42.600776
z
" style="fill:#1f77b4;"/>
   </g>
   <g id="patch_86">
    <path clip-path="url(#pe64681dc40)" d="M 174.816591 228.14
L 176.338409 228.14
L 176.338409 49.184426
L 174.816591 49.184426
z
" style="fill:#1f77b4;"/>
   </g>
   <g id="patch_87">
    <path clip-path="url(#pe64681dc40)" d="M 176.338409 228.14
L 177.860227 228.14
L 177.860227 51.578481
L 176.338409 51.578481
z
" style="fill:#1f77b4;"/>
   </g>
   <g id="patch_88">
    <path clip-path="url(#pe64681dc40)" d="M 177.860227 228.14
L 179.382045 228.14
L 179.382045 39.009694
L 177.860227 39.009694
z
" style="fill:#1f77b4;"/>
   </g>
   <g id="patch_89">
    <path clip-path="url(#pe64681dc40)" d="M 179.382045 228.14
L 180.903864 228.14
L 180.903864 29.433476
L 179.382045 29.433476
z
" style="fill:#1f77b4;"/>
   </g>
   <g id="patch_90">
    <path clip-path="url(#pe64681dc40)" d="M 180.903864 228.14
L 182.425682 228.14
L 182.425682 32.426045
L 180.903864 32.426045
z
" style="fill:#1f77b4;"/>
   </g>
   <g id="patch_91">
    <path clip-path="url(#pe64681dc40)" d="M 182.425682 228.14
L 183.9475 228.14
L 183.9475 37.214154
L 182.425682 37.214154
z
" style="fill:#1f77b4;"/>
   </g>
   <g id="patch_92">
    <path clip-path="url(#pe64681dc40)" d="M 183.9475 228.14
L 185.469318 228.14
L 185.469318 26.440908
L 183.9475 26.440908
z
" style="fill:#1f77b4;"/>
   </g>
   <g id="patch_93">
    <path clip-path="url(#pe64681dc40)" d="M 185.469318 228.14
L 186.991136 228.14
L 186.991136 21.054286
L 185.469318 21.054286
z
" style="fill:#1f77b4;"/>
   </g>
   <g id="patch_94">
    <path clip-path="url(#pe64681dc40)" d="M 186.991136 228.14
L 188.512955 228.14
L 188.512955 56.36659
L 186.991136 56.36659
z
" style="fill:#1f77b4;"/>
   </g>
   <g id="patch_95">
    <path clip-path="url(#pe64681dc40)" d="M 188.512955 228.14
L 190.034773 228.14
L 190.034773 33.623072
L 188.512955 33.623072
z
" style="fill:#1f77b4;"/>
   </g>
   <g id="patch_96">
    <path clip-path="url(#pe64681dc40)" d="M 190.034773 228.14
L 191.556591 228.14
L 191.556591 24.046854
L 190.034773 24.046854
z
" style="fill:#1f77b4;"/>
   </g>
   <g id="patch_97">
    <path clip-path="url(#pe64681dc40)" d="M 191.556591 228.14
L 193.078409 228.14
L 193.078409 45.593344
L 191.556591 45.593344
z
" style="fill:#1f77b4;"/>
   </g>
   <g id="patch_98">
    <path clip-path="url(#pe64681dc40)" d="M 193.078409 228.14
L 194.600227 228.14
L 194.600227 22.849827
L 193.078409 22.849827
z
" style="fill:#1f77b4;"/>
   </g>
   <g id="patch_99">
    <path clip-path="url(#pe64681dc40)" d="M 194.600227 228.14
L 196.122045 228.14
L 196.122045 53.374021
L 194.600227 53.374021
z
" style="fill:#1f77b4;"/>
   </g>
   <g id="patch_100">
    <path clip-path="url(#pe64681dc40)" d="M 196.122045 228.14
L 197.643864 228.14
L 197.643864 42.600776
L 196.122045 42.600776
z
" style="fill:#1f77b4;"/>
   </g>
   <g id="patch_101">
    <path clip-path="url(#pe64681dc40)" d="M 197.643864 228.14
L 199.165682 228.14
L 199.165682 39.608208
L 197.643864 39.608208
z
" style="fill:#1f77b4;"/>
   </g>
   <g id="patch_102">
    <path clip-path="url(#pe64681dc40)" d="M 199.165682 228.14
L 200.6875 228.14
L 200.6875 57.563617
L 199.165682 57.563617
z
" style="fill:#1f77b4;"/>
   </g>
   <g id="patch_103">
    <path clip-path="url(#pe64681dc40)" d="M 200.6875 228.14
L 202.209318 228.14
L 202.209318 53.972535
L 200.6875 53.972535
z
" style="fill:#1f77b4;"/>
   </g>
   <g id="patch_104">
    <path clip-path="url(#pe64681dc40)" d="M 202.209318 228.14
L 203.731136 228.14
L 203.731136 67.139835
L 202.209318 67.139835
z
" style="fill:#1f77b4;"/>
   </g>
   <g id="patch_105">
    <path clip-path="url(#pe64681dc40)" d="M 203.731136 228.14
L 205.252955 228.14
L 205.252955 59.359158
L 203.731136 59.359158
z
" style="fill:#1f77b4;"/>
   </g>
   <g id="patch_106">
    <path clip-path="url(#pe64681dc40)" d="M 205.252955 228.14
L 206.774773 228.14
L 206.774773 66.541321
L 205.252955 66.541321
z
" style="fill:#1f77b4;"/>
   </g>
   <g id="patch_107">
    <path clip-path="url(#pe64681dc40)" d="M 206.774773 228.14
L 208.296591 228.14
L 208.296591 56.36659
L 206.774773 56.36659
z
" style="fill:#1f77b4;"/>
   </g>
   <g id="patch_108">
    <path clip-path="url(#pe64681dc40)" d="M 208.296591 228.14
L 209.818409 228.14
L 209.818409 55.169562
L 208.296591 55.169562
z
" style="fill:#1f77b4;"/>
   </g>
   <g id="patch_109">
    <path clip-path="url(#pe64681dc40)" d="M 209.818409 228.14
L 211.340227 228.14
L 211.340227 68.935376
L 209.818409 68.935376
z
" style="fill:#1f77b4;"/>
   </g>
   <g id="patch_110">
    <path clip-path="url(#pe64681dc40)" d="M 211.340227 228.14
L 212.862045 228.14
L 212.862045 83.299703
L 211.340227 83.299703
z
" style="fill:#1f77b4;"/>
   </g>
   <g id="patch_111">
    <path clip-path="url(#pe64681dc40)" d="M 212.862045 228.14
L 214.383864 228.14
L 214.383864 95.868489
L 212.862045 95.868489
z
" style="fill:#1f77b4;"/>
   </g>
   <g id="patch_112">
    <path clip-path="url(#pe64681dc40)" d="M 214.383864 228.14
L 215.905682 228.14
L 215.905682 83.898216
L 214.383864 83.898216
z
" style="fill:#1f77b4;"/>
   </g>
   <g id="patch_113">
    <path clip-path="url(#pe64681dc40)" d="M 215.905682 228.14
L 217.4275 228.14
L 217.4275 91.08038
L 215.905682 91.08038
z
" style="fill:#1f77b4;"/>
   </g>
   <g id="patch_114">
    <path clip-path="url(#pe64681dc40)" d="M 217.4275 228.14
L 218.949318 228.14
L 218.949318 112.028357
L 217.4275 112.028357
z
" style="fill:#1f77b4;"/>
   </g>
   <g id="patch_115">
    <path clip-path="url(#pe64681dc40)" d="M 218.949318 228.14
L 220.471136 228.14
L 220.471136 110.232816
L 218.949318 110.232816
z
" style="fill:#1f77b4;"/>
   </g>
   <g id="patch_116">
    <path clip-path="url(#pe64681dc40)" d="M 220.471136 228.14
L 221.992955 228.14
L 221.992955 104.24768
L 220.471136 104.24768
z
" style="fill:#1f77b4;"/>
   </g>
   <g id="patch_117">
    <path clip-path="url(#pe64681dc40)" d="M 221.992955 228.14
L 223.514773 228.14
L 223.514773 119.21052
L 221.992955 119.21052
z
" style="fill:#1f77b4;"/>
   </g>
   <g id="patch_118">
    <path clip-path="url(#pe64681dc40)" d="M 223.514773 228.14
L 225.036591 228.14
L 225.036591 101.853625
L 223.514773 101.853625
z
" style="fill:#1f77b4;"/>
   </g>
   <g id="patch_119">
    <path clip-path="url(#pe64681dc40)" d="M 225.036591 228.14
L 226.558409 228.14
L 226.558409 121.604575
L 225.036591 121.604575
z
" style="fill:#1f77b4;"/>
   </g>
   <g id="patch_120">
    <path clip-path="url(#pe64681dc40)" d="M 226.558409 228.14
L 228.080227 228.14
L 228.080227 131.180793
L 226.558409 131.180793
z
" style="fill:#1f77b4;"/>
   </g>
   <g id="patch_121">
    <path clip-path="url(#pe64681dc40)" d="M 228.080227 228.14
L 229.602045 228.14
L 229.602045 125.79417
L 228.080227 125.79417
z
" style="fill:#1f77b4;"/>
   </g>
   <g id="patch_122">
    <path clip-path="url(#pe64681dc40)" d="M 229.602045 228.14
L 231.123864 228.14
L 231.123864 138.96147
L 229.602045 138.96147
z
" style="fill:#1f77b4;"/>
   </g>
   <g id="patch_123">
    <path clip-path="url(#pe64681dc40)" d="M 231.123864 228.14
L 232.645682 228.14
L 232.645682 145.54512
L 231.123864 145.54512
z
" style="fill:#1f77b4;"/>
   </g>
   <g id="patch_124">
    <path clip-path="url(#pe64681dc40)" d="M 232.645682 228.14
L 234.1675 228.14
L 234.1675 126.392684
L 232.645682 126.392684
z
" style="fill:#1f77b4;"/>
   </g>
   <g id="patch_125">
    <path clip-path="url(#pe64681dc40)" d="M 234.1675 228.14
L 235.689318 228.14
L 235.689318 141.355524
L 234.1675 141.355524
z
" style="fill:#1f77b4;"/>
   </g>
   <g id="patch_126">
    <path clip-path="url(#pe64681dc40)" d="M 235.689318 228.14
L 237.211136 228.14
L 237.211136 154.522824
L 235.689318 154.522824
z
" style="fill:#1f77b4;"/>
   </g>
   <g id="patch_127">
    <path clip-path="url(#pe64681dc40)" d="M 237.211136 228.14
L 238.732955 228.14
L 238.732955 166.493097
L 237.211136 166.493097
z
" style="fill:#1f77b4;"/>
   </g>
   <g id="patch_128">
    <path clip-path="url(#pe64681dc40)" d="M 238.732955 228.14
L 240.254773 228.14
L 240.254773 156.318365
L 238.732955 156.318365
z
" style="fill:#1f77b4;"/>
   </g>
   <g id="patch_129">
    <path clip-path="url(#pe64681dc40)" d="M 240.254773 228.14
L 241.776591 228.14
L 241.776591 170.682692
L 240.254773 170.682692
z
" style="fill:#1f77b4;"/>
   </g>
   <g id="patch_130">
    <path clip-path="url(#pe64681dc40)" d="M 241.776591 228.14
L 243.298409 228.14
L 243.298409 174.273774
L 241.776591 174.273774
z
" style="fill:#1f77b4;"/>
   </g>
   <g id="patch_131">
    <path clip-path="url(#pe64681dc40)" d="M 243.298409 228.14
L 244.820227 228.14
L 244.820227 169.485665
L 243.298409 169.485665
z
" style="fill:#1f77b4;"/>
   </g>
   <g id="patch_132">
    <path clip-path="url(#pe64681dc40)" d="M 244.820227 228.14
L 246.342045 228.14
L 246.342045 167.09161
L 244.820227 167.09161
z
" style="fill:#1f77b4;"/>
   </g>
   <g id="patch_133">
    <path clip-path="url(#pe64681dc40)" d="M 246.342045 228.14
L 247.863864 228.14
L 247.863864 169.485665
L 246.342045 169.485665
z
" style="fill:#1f77b4;"/>
   </g>
   <g id="patch_134">
    <path clip-path="url(#pe64681dc40)" d="M 247.863864 228.14
L 249.385682 228.14
L 249.385682 176.667828
L 247.863864 176.667828
z
" style="fill:#1f77b4;"/>
   </g>
   <g id="patch_135">
    <path clip-path="url(#pe64681dc40)" d="M 249.385682 228.14
L 250.9075 228.14
L 250.9075 174.872287
L 249.385682 174.872287
z
" style="fill:#1f77b4;"/>
   </g>
   <g id="patch_136">
    <path clip-path="url(#pe64681dc40)" d="M 250.9075 228.14
L 252.429318 228.14
L 252.429318 196.418778
L 250.9075 196.418778
z
" style="fill:#1f77b4;"/>
   </g>
   <g id="patch_137">
    <path clip-path="url(#pe64681dc40)" d="M 252.429318 228.14
L 253.951136 228.14
L 253.951136 179.660396
L 252.429318 179.660396
z
" style="fill:#1f77b4;"/>
   </g>
   <g id="patch_138">
    <path clip-path="url(#pe64681dc40)" d="M 253.951136 228.14
L 255.472955 228.14
L 255.472955 182.652964
L 253.951136 182.652964
z
" style="fill:#1f77b4;"/>
   </g>
   <g id="patch_139">
    <path clip-path="url(#pe64681dc40)" d="M 255.472955 228.14
L 256.994773 228.14
L 256.994773 195.221751
L 255.472955 195.221751
z
" style="fill:#1f77b4;"/>
   </g>
   <g id="patch_140">
    <path clip-path="url(#pe64681dc40)" d="M 256.994773 228.14
L 258.516591 228.14
L 258.516591 195.820264
L 256.994773 195.820264
z
" style="fill:#1f77b4;"/>
   </g>
   <g id="patch_141">
    <path clip-path="url(#pe64681dc40)" d="M 258.516591 228.14
L 260.038409 228.14
L 260.038409 195.820264
L 258.516591 195.820264
z
" style="fill:#1f77b4;"/>
   </g>
   <g id="patch_142">
    <path clip-path="url(#pe64681dc40)" d="M 260.038409 228.14
L 261.560227 228.14
L 261.560227 204.797969
L 260.038409 204.797969
z
" style="fill:#1f77b4;"/>
   </g>
   <g id="patch_143">
    <path clip-path="url(#pe64681dc40)" d="M 261.560227 228.14
L 263.082045 228.14
L 263.082045 194.024723
L 261.560227 194.024723
z
" style="fill:#1f77b4;"/>
   </g>
   <g id="patch_144">
    <path clip-path="url(#pe64681dc40)" d="M 263.082045 228.14
L 264.603864 228.14
L 264.603864 205.994996
L 263.082045 205.994996
z
" style="fill:#1f77b4;"/>
   </g>
   <g id="patch_145">
    <path clip-path="url(#pe64681dc40)" d="M 264.603864 228.14
L 266.125682 228.14
L 266.125682 206.593509
L 264.603864 206.593509
z
" style="fill:#1f77b4;"/>
   </g>
   <g id="patch_146">
    <path clip-path="url(#pe64681dc40)" d="M 266.125682 228.14
L 267.6475 228.14
L 267.6475 209.586078
L 266.125682 209.586078
z
" style="fill:#1f77b4;"/>
   </g>
   <g id="patch_147">
    <path clip-path="url(#pe64681dc40)" d="M 267.6475 228.14
L 269.169318 228.14
L 269.169318 208.987564
L 267.6475 208.987564
z
" style="fill:#1f77b4;"/>
   </g>
   <g id="patch_148">
    <path clip-path="url(#pe64681dc40)" d="M 269.169318 228.14
L 270.691136 228.14
L 270.691136 207.790537
L 269.169318 207.790537
z
" style="fill:#1f77b4;"/>
   </g>
   <g id="patch_149">
    <path clip-path="url(#pe64681dc40)" d="M 270.691136 228.14
L 272.212955 228.14
L 272.212955 212.578646
L 270.691136 212.578646
z
" style="fill:#1f77b4;"/>
   </g>
   <g id="patch_150">
    <path clip-path="url(#pe64681dc40)" d="M 272.212955 228.14
L 273.734773 228.14
L 273.734773 211.381618
L 272.212955 211.381618
z
" style="fill:#1f77b4;"/>
   </g>
   <g id="patch_151">
    <path clip-path="url(#pe64681dc40)" d="M 273.734773 228.14
L 275.256591 228.14
L 275.256591 218.563782
L 273.734773 218.563782
z
" style="fill:#1f77b4;"/>
   </g>
   <g id="patch_152">
    <path clip-path="url(#pe64681dc40)" d="M 275.256591 228.14
L 276.778409 228.14
L 276.778409 219.162296
L 275.256591 219.162296
z
" style="fill:#1f77b4;"/>
   </g>
   <g id="patch_153">
    <path clip-path="url(#pe64681dc40)" d="M 276.778409 228.14
L 278.300227 228.14
L 278.300227 214.9727
L 276.778409 214.9727
z
" style="fill:#1f77b4;"/>
   </g>
   <g id="patch_154">
    <path clip-path="url(#pe64681dc40)" d="M 278.300227 228.14
L 279.822045 228.14
L 279.822045 216.169727
L 278.300227 216.169727
z
" style="fill:#1f77b4;"/>
   </g>
   <g id="patch_155">
    <path clip-path="url(#pe64681dc40)" d="M 279.822045 228.14
L 281.343864 228.14
L 281.343864 221.55635
L 279.822045 221.55635
z
" style="fill:#1f77b4;"/>
   </g>
   <g id="patch_156">
    <path clip-path="url(#pe64681dc40)" d="M 281.343864 228.14
L 282.865682 228.14
L 282.865682 223.351891
L 281.343864 223.351891
z
" style="fill:#1f77b4;"/>
   </g>
   <g id="patch_157">
    <path clip-path="url(#pe64681dc40)" d="M 282.865682 228.14
L 284.3875 228.14
L 284.3875 222.154864
L 282.865682 222.154864
z
" style="fill:#1f77b4;"/>
   </g>
   <g id="patch_158">
    <path clip-path="url(#pe64681dc40)" d="M 284.3875 228.14
L 285.909318 228.14
L 285.909318 219.760809
L 284.3875 219.760809
z
" style="fill:#1f77b4;"/>
   </g>
   <g id="patch_159">
    <path clip-path="url(#pe64681dc40)" d="M 285.909318 228.14
L 287.431136 228.14
L 287.431136 220.957836
L 285.909318 220.957836
z
" style="fill:#1f77b4;"/>
   </g>
   <g id="patch_160">
    <path clip-path="url(#pe64681dc40)" d="M 287.431136 228.14
L 288.952955 228.14
L 288.952955 226.344459
L 287.431136 226.344459
z
" style="fill:#1f77b4;"/>
   </g>
   <g id="patch_161">
    <path clip-path="url(#pe64681dc40)" d="M 288.952955 228.14
L 290.474773 228.14
L 290.474773 225.745945
L 288.952955 225.745945
z
" style="fill:#1f77b4;"/>
   </g>
   <g id="patch_162">
    <path clip-path="url(#pe64681dc40)" d="M 290.474773 228.14
L 291.996591 228.14
L 291.996591 223.950405
L 290.474773 223.950405
z
" style="fill:#1f77b4;"/>
   </g>
   <g id="patch_163">
    <path clip-path="url(#pe64681dc40)" d="M 291.996591 228.14
L 293.518409 228.14
L 293.518409 223.950405
L 291.996591 223.950405
z
" style="fill:#1f77b4;"/>
   </g>
   <g id="patch_164">
    <path clip-path="url(#pe64681dc40)" d="M 293.518409 228.14
L 295.040227 228.14
L 295.040227 223.351891
L 293.518409 223.351891
z
" style="fill:#1f77b4;"/>
   </g>
   <g id="patch_165">
    <path clip-path="url(#pe64681dc40)" d="M 295.040227 228.14
L 296.562045 228.14
L 296.562045 223.351891
L 295.040227 223.351891
z
" style="fill:#1f77b4;"/>
   </g>
   <g id="patch_166">
    <path clip-path="url(#pe64681dc40)" d="M 296.562045 228.14
L 298.083864 228.14
L 298.083864 226.344459
L 296.562045 226.344459
z
" style="fill:#1f77b4;"/>
   </g>
   <g id="patch_167">
    <path clip-path="url(#pe64681dc40)" d="M 298.083864 228.14
L 299.605682 228.14
L 299.605682 226.942973
L 298.083864 226.942973
z
" style="fill:#1f77b4;"/>
   </g>
   <g id="patch_168">
    <path clip-path="url(#pe64681dc40)" d="M 299.605682 228.14
L 301.1275 228.14
L 301.1275 225.745945
L 299.605682 225.745945
z
" style="fill:#1f77b4;"/>
   </g>
   <g id="patch_169">
    <path clip-path="url(#pe64681dc40)" d="M 301.1275 228.14
L 302.649318 228.14
L 302.649318 227.541486
L 301.1275 227.541486
z
" style="fill:#1f77b4;"/>
   </g>
   <g id="patch_170">
    <path clip-path="url(#pe64681dc40)" d="M 302.649318 228.14
L 304.171136 228.14
L 304.171136 226.344459
L 302.649318 226.344459
z
" style="fill:#1f77b4;"/>
   </g>
   <g id="patch_171">
    <path clip-path="url(#pe64681dc40)" d="M 304.171136 228.14
L 305.692955 228.14
L 305.692955 226.942973
L 304.171136 226.942973
z
" style="fill:#1f77b4;"/>
   </g>
   <g id="patch_172">
    <path clip-path="url(#pe64681dc40)" d="M 305.692955 228.14
L 307.214773 228.14
L 307.214773 227.541486
L 305.692955 227.541486
z
" style="fill:#1f77b4;"/>
   </g>
   <g id="patch_173">
    <path clip-path="url(#pe64681dc40)" d="M 307.214773 228.14
L 308.736591 228.14
L 308.736591 226.942973
L 307.214773 226.942973
z
" style="fill:#1f77b4;"/>
   </g>
   <g id="patch_174">
    <path clip-path="url(#pe64681dc40)" d="M 308.736591 228.14
L 310.258409 228.14
L 310.258409 228.14
L 308.736591 228.14
z
" style="fill:#1f77b4;"/>
   </g>
   <g id="patch_175">
    <path clip-path="url(#pe64681dc40)" d="M 310.258409 228.14
L 311.780227 228.14
L 311.780227 228.14
L 310.258409 228.14
z
" style="fill:#1f77b4;"/>
   </g>
   <g id="patch_176">
    <path clip-path="url(#pe64681dc40)" d="M 311.780227 228.14
L 313.302045 228.14
L 313.302045 228.14
L 311.780227 228.14
z
" style="fill:#1f77b4;"/>
   </g>
   <g id="patch_177">
    <path clip-path="url(#pe64681dc40)" d="M 313.302045 228.14
L 314.823864 228.14
L 314.823864 227.541486
L 313.302045 227.541486
z
" style="fill:#1f77b4;"/>
   </g>
   <g id="patch_178">
    <path clip-path="url(#pe64681dc40)" d="M 314.823864 228.14
L 316.345682 228.14
L 316.345682 228.14
L 314.823864 228.14
z
" style="fill:#1f77b4;"/>
   </g>
   <g id="patch_179">
    <path clip-path="url(#pe64681dc40)" d="M 316.345682 228.14
L 317.8675 228.14
L 317.8675 228.14
L 316.345682 228.14
z
" style="fill:#1f77b4;"/>
   </g>
   <g id="patch_180">
    <path clip-path="url(#pe64681dc40)" d="M 317.8675 228.14
L 319.389318 228.14
L 319.389318 226.942973
L 317.8675 226.942973
z
" style="fill:#1f77b4;"/>
   </g>
   <g id="patch_181">
    <path clip-path="url(#pe64681dc40)" d="M 319.389318 228.14
L 320.911136 228.14
L 320.911136 226.942973
L 319.389318 226.942973
z
" style="fill:#1f77b4;"/>
   </g>
   <g id="patch_182">
    <path clip-path="url(#pe64681dc40)" d="M 320.911136 228.14
L 322.432955 228.14
L 322.432955 228.14
L 320.911136 228.14
z
" style="fill:#1f77b4;"/>
   </g>
   <g id="patch_183">
    <path clip-path="url(#pe64681dc40)" d="M 322.432955 228.14
L 323.954773 228.14
L 323.954773 228.14
L 322.432955 228.14
z
" style="fill:#1f77b4;"/>
   </g>
   <g id="patch_184">
    <path clip-path="url(#pe64681dc40)" d="M 323.954773 228.14
L 325.476591 228.14
L 325.476591 228.14
L 323.954773 228.14
z
" style="fill:#1f77b4;"/>
   </g>
   <g id="patch_185">
    <path clip-path="url(#pe64681dc40)" d="M 325.476591 228.14
L 326.998409 228.14
L 326.998409 228.14
L 325.476591 228.14
z
" style="fill:#1f77b4;"/>
   </g>
   <g id="patch_186">
    <path clip-path="url(#pe64681dc40)" d="M 326.998409 228.14
L 328.520227 228.14
L 328.520227 227.541486
L 326.998409 227.541486
z
" style="fill:#1f77b4;"/>
   </g>
   <g id="patch_187">
    <path clip-path="url(#pe64681dc40)" d="M 328.520227 228.14
L 330.042045 228.14
L 330.042045 228.14
L 328.520227 228.14
z
" style="fill:#1f77b4;"/>
   </g>
   <g id="patch_188">
    <path clip-path="url(#pe64681dc40)" d="M 330.042045 228.14
L 331.563864 228.14
L 331.563864 228.14
L 330.042045 228.14
z
" style="fill:#1f77b4;"/>
   </g>
   <g id="patch_189">
    <path clip-path="url(#pe64681dc40)" d="M 331.563864 228.14
L 333.085682 228.14
L 333.085682 228.14
L 331.563864 228.14
z
" style="fill:#1f77b4;"/>
   </g>
   <g id="patch_190">
    <path clip-path="url(#pe64681dc40)" d="M 333.085682 228.14
L 334.6075 228.14
L 334.6075 227.541486
L 333.085682 227.541486
z
" style="fill:#1f77b4;"/>
   </g>
   <g id="patch_191">
    <path clip-path="url(#pe64681dc40)" d="M 334.6075 228.14
L 336.129318 228.14
L 336.129318 228.14
L 334.6075 228.14
z
" style="fill:#1f77b4;"/>
   </g>
   <g id="patch_192">
    <path clip-path="url(#pe64681dc40)" d="M 336.129318 228.14
L 337.651136 228.14
L 337.651136 228.14
L 336.129318 228.14
z
" style="fill:#1f77b4;"/>
   </g>
   <g id="patch_193">
    <path clip-path="url(#pe64681dc40)" d="M 337.651136 228.14
L 339.172955 228.14
L 339.172955 228.14
L 337.651136 228.14
z
" style="fill:#1f77b4;"/>
   </g>
   <g id="patch_194">
    <path clip-path="url(#pe64681dc40)" d="M 339.172955 228.14
L 340.694773 228.14
L 340.694773 228.14
L 339.172955 228.14
z
" style="fill:#1f77b4;"/>
   </g>
   <g id="patch_195">
    <path clip-path="url(#pe64681dc40)" d="M 340.694773 228.14
L 342.216591 228.14
L 342.216591 227.541486
L 340.694773 227.541486
z
" style="fill:#1f77b4;"/>
   </g>
   <g id="patch_196">
    <path clip-path="url(#pe64681dc40)" d="M 342.216591 228.14
L 343.738409 228.14
L 343.738409 228.14
L 342.216591 228.14
z
" style="fill:#1f77b4;"/>
   </g>
   <g id="patch_197">
    <path clip-path="url(#pe64681dc40)" d="M 343.738409 228.14
L 345.260227 228.14
L 345.260227 228.14
L 343.738409 228.14
z
" style="fill:#1f77b4;"/>
   </g>
   <g id="patch_198">
    <path clip-path="url(#pe64681dc40)" d="M 345.260227 228.14
L 346.782045 228.14
L 346.782045 228.14
L 345.260227 228.14
z
" style="fill:#1f77b4;"/>
   </g>
   <g id="patch_199">
    <path clip-path="url(#pe64681dc40)" d="M 346.782045 228.14
L 348.303864 228.14
L 348.303864 228.14
L 346.782045 228.14
z
" style="fill:#1f77b4;"/>
   </g>
   <g id="patch_200">
    <path clip-path="url(#pe64681dc40)" d="M 348.303864 228.14
L 349.825682 228.14
L 349.825682 228.14
L 348.303864 228.14
z
" style="fill:#1f77b4;"/>
   </g>
   <g id="patch_201">
    <path clip-path="url(#pe64681dc40)" d="M 349.825682 228.14
L 351.3475 228.14
L 351.3475 228.14
L 349.825682 228.14
z
" style="fill:#1f77b4;"/>
   </g>
   <g id="patch_202">
    <path clip-path="url(#pe64681dc40)" d="M 351.3475 228.14
L 352.869318 228.14
L 352.869318 227.541486
L 351.3475 227.541486
z
" style="fill:#1f77b4;"/>
   </g>
   <g id="matplotlib.axis_1">
    <g id="xtick_1">
     <g id="line2d_1">
      <defs>
       <path d="M 0 0
L 0 3.5
" id="m7962d80f92" style="stroke:#000000;stroke-width:0.8;"/>
      </defs>
      <g>
       <use style="stroke:#000000;stroke-width:0.8;" x="70.717034" xlink:href="#m7962d80f92" y="228.14"/>
      </g>
     </g>
     <g id="text_1">
      <!-- −3 -->
      <defs>
       <path d="M 10.59375 35.5
L 73.1875 35.5
L 73.1875 27.203125
L 10.59375 27.203125
z
" id="DejaVuSans-2212"/>
       <path d="M 40.578125 39.3125
Q 47.65625 37.796875 51.625 33
Q 55.609375 28.21875 55.609375 21.1875
Q 55.609375 10.40625 48.1875 4.484375
Q 40.765625 -1.421875 27.09375 -1.421875
Q 22.515625 -1.421875 17.65625 -0.515625
Q 12.796875 0.390625 7.625 2.203125
L 7.625 11.71875
Q 11.71875 9.328125 16.59375 8.109375
Q 21.484375 6.890625 26.8125 6.890625
Q 36.078125 6.890625 40.9375 10.546875
Q 45.796875 14.203125 45.796875 21.1875
Q 45.796875 27.640625 41.28125 31.265625
Q 36.765625 34.90625 28.71875 34.90625
L 20.21875 34.90625
L 20.21875 43.015625
L 29.109375 43.015625
Q 36.375 43.015625 40.234375 45.921875
Q 44.09375 48.828125 44.09375 54.296875
Q 44.09375 59.90625 40.109375 62.90625
Q 36.140625 65.921875 28.71875 65.921875
Q 24.65625 65.921875 20.015625 65.03125
Q 15.375 64.15625 9.8125 62.3125
L 9.8125 71.09375
Q 15.4375 72.65625 20.34375 73.4375
Q 25.25 74.21875 29.59375 74.21875
Q 40.828125 74.21875 47.359375 69.109375
Q 53.90625 64.015625 53.90625 55.328125
Q 53.90625 49.265625 50.4375 45.09375
Q 46.96875 40.921875 40.578125 39.3125
z
" id="DejaVuSans-33"/>
      </defs>
      <g transform="translate(63.34594 242.738437)scale(0.1 -0.1)">
       <use xlink:href="#DejaVuSans-2212"/>
       <use x="83.789062" xlink:href="#DejaVuSans-33"/>
      </g>
     </g>
    </g>
    <g id="xtick_2">
     <g id="line2d_2">
      <g>
       <use style="stroke:#000000;stroke-width:0.8;" x="109.064866" xlink:href="#m7962d80f92" y="228.14"/>
      </g>
     </g>
     <g id="text_2">
      <!-- −2 -->
      <defs>
       <path d="M 19.1875 8.296875
L 53.609375 8.296875
L 53.609375 0
L 7.328125 0
L 7.328125 8.296875
Q 12.9375 14.109375 22.625 23.890625
Q 32.328125 33.6875 34.8125 36.53125
Q 39.546875 41.84375 41.421875 45.53125
Q 43.3125 49.21875 43.3125 52.78125
Q 43.3125 58.59375 39.234375 62.25
Q 35.15625 65.921875 28.609375 65.921875
Q 23.96875 65.921875 18.8125 64.3125
Q 13.671875 62.703125 7.8125 59.421875
L 7.8125 69.390625
Q 13.765625 71.78125 18.9375 73
Q 24.125 74.21875 28.421875 74.21875
Q 39.75 74.21875 46.484375 68.546875
Q 53.21875 62.890625 53.21875 53.421875
Q 53.21875 48.921875 51.53125 44.890625
Q 49.859375 40.875 45.40625 35.40625
Q 44.1875 33.984375 37.640625 27.21875
Q 31.109375 20.453125 19.1875 8.296875
z
" id="DejaVuSans-32"/>
      </defs>
      <g transform="translate(101.693772 242.738437)scale(0.1 -0.1)">
       <use xlink:href="#DejaVuSans-2212"/>
       <use x="83.789062" xlink:href="#DejaVuSans-32"/>
      </g>
     </g>
    </g>
    <g id="xtick_3">
     <g id="line2d_3">
      <g>
       <use style="stroke:#000000;stroke-width:0.8;" x="147.412698" xlink:href="#m7962d80f92" y="228.14"/>
      </g>
     </g>
     <g id="text_3">
      <!-- −1 -->
      <defs>
       <path d="M 12.40625 8.296875
L 28.515625 8.296875
L 28.515625 63.921875
L 10.984375 60.40625
L 10.984375 69.390625
L 28.421875 72.90625
L 38.28125 72.90625
L 38.28125 8.296875
L 54.390625 8.296875
L 54.390625 0
L 12.40625 0
z
" id="DejaVuSans-31"/>
      </defs>
      <g transform="translate(140.041604 242.738437)scale(0.1 -0.1)">
       <use xlink:href="#DejaVuSans-2212"/>
       <use x="83.789062" xlink:href="#DejaVuSans-31"/>
      </g>
     </g>
    </g>
    <g id="xtick_4">
     <g id="line2d_4">
      <g>
       <use style="stroke:#000000;stroke-width:0.8;" x="185.76053" xlink:href="#m7962d80f92" y="228.14"/>
      </g>
     </g>
     <g id="text_4">
      <!-- 0 -->
      <defs>
       <path d="M 31.78125 66.40625
Q 24.171875 66.40625 20.328125 58.90625
Q 16.5 51.421875 16.5 36.375
Q 16.5 21.390625 20.328125 13.890625
Q 24.171875 6.390625 31.78125 6.390625
Q 39.453125 6.390625 43.28125 13.890625
Q 47.125 21.390625 47.125 36.375
Q 47.125 51.421875 43.28125 58.90625
Q 39.453125 66.40625 31.78125 66.40625
z
M 31.78125 74.21875
Q 44.046875 74.21875 50.515625 64.515625
Q 56.984375 54.828125 56.984375 36.375
Q 56.984375 17.96875 50.515625 8.265625
Q 44.046875 -1.421875 31.78125 -1.421875
Q 19.53125 -1.421875 13.0625 8.265625
Q 6.59375 17.96875 6.59375 36.375
Q 6.59375 54.828125 13.0625 64.515625
Q 19.53125 74.21875 31.78125 74.21875
z
" id="DejaVuSans-30"/>
      </defs>
      <g transform="translate(182.57928 242.738437)scale(0.1 -0.1)">
       <use xlink:href="#DejaVuSans-30"/>
      </g>
     </g>
    </g>
    <g id="xtick_5">
     <g id="line2d_5">
      <g>
       <use style="stroke:#000000;stroke-width:0.8;" x="224.108362" xlink:href="#m7962d80f92" y="228.14"/>
      </g>
     </g>
     <g id="text_5">
      <!-- 1 -->
      <g transform="translate(220.927112 242.738437)scale(0.1 -0.1)">
       <use xlink:href="#DejaVuSans-31"/>
      </g>
     </g>
    </g>
    <g id="xtick_6">
     <g id="line2d_6">
      <g>
       <use style="stroke:#000000;stroke-width:0.8;" x="262.456195" xlink:href="#m7962d80f92" y="228.14"/>
      </g>
     </g>
     <g id="text_6">
      <!-- 2 -->
      <g transform="translate(259.274945 242.738437)scale(0.1 -0.1)">
       <use xlink:href="#DejaVuSans-32"/>
      </g>
     </g>
    </g>
    <g id="xtick_7">
     <g id="line2d_7">
      <g>
       <use style="stroke:#000000;stroke-width:0.8;" x="300.804027" xlink:href="#m7962d80f92" y="228.14"/>
      </g>
     </g>
     <g id="text_7">
      <!-- 3 -->
      <g transform="translate(297.622777 242.738437)scale(0.1 -0.1)">
       <use xlink:href="#DejaVuSans-33"/>
      </g>
     </g>
    </g>
    <g id="xtick_8">
     <g id="line2d_8">
      <g>
       <use style="stroke:#000000;stroke-width:0.8;" x="339.151859" xlink:href="#m7962d80f92" y="228.14"/>
      </g>
     </g>
     <g id="text_8">
      <!-- 4 -->
      <defs>
       <path d="M 37.796875 64.3125
L 12.890625 25.390625
L 37.796875 25.390625
z
M 35.203125 72.90625
L 47.609375 72.90625
L 47.609375 25.390625
L 58.015625 25.390625
L 58.015625 17.1875
L 47.609375 17.1875
L 47.609375 0
L 37.796875 0
L 37.796875 17.1875
L 4.890625 17.1875
L 4.890625 26.703125
z
" id="DejaVuSans-34"/>
      </defs>
      <g transform="translate(335.970609 242.738437)scale(0.1 -0.1)">
       <use xlink:href="#DejaVuSans-34"/>
      </g>
     </g>
    </g>
   </g>
   <g id="matplotlib.axis_2">
    <g id="ytick_1">
     <g id="line2d_9">
      <defs>
       <path d="M 0 0
L -3.5 0
" id="m61131a6bdf" style="stroke:#000000;stroke-width:0.8;"/>
      </defs>
      <g>
       <use style="stroke:#000000;stroke-width:0.8;" x="33.2875" xlink:href="#m61131a6bdf" y="228.14"/>
      </g>
     </g>
     <g id="text_9">
      <!-- 0 -->
      <g transform="translate(19.925 231.939219)scale(0.1 -0.1)">
       <use xlink:href="#DejaVuSans-30"/>
      </g>
     </g>
    </g>
    <g id="ytick_2">
     <g id="line2d_10">
      <g>
       <use style="stroke:#000000;stroke-width:0.8;" x="33.2875" xlink:href="#m61131a6bdf" y="198.214319"/>
      </g>
     </g>
     <g id="text_10">
      <!-- 50 -->
      <defs>
       <path d="M 10.796875 72.90625
L 49.515625 72.90625
L 49.515625 64.59375
L 19.828125 64.59375
L 19.828125 46.734375
Q 21.96875 47.46875 24.109375 47.828125
Q 26.265625 48.1875 28.421875 48.1875
Q 40.625 48.1875 47.75 41.5
Q 54.890625 34.8125 54.890625 23.390625
Q 54.890625 11.625 47.5625 5.09375
Q 40.234375 -1.421875 26.90625 -1.421875
Q 22.3125 -1.421875 17.546875 -0.640625
Q 12.796875 0.140625 7.71875 1.703125
L 7.71875 11.625
Q 12.109375 9.234375 16.796875 8.0625
Q 21.484375 6.890625 26.703125 6.890625
Q 35.15625 6.890625 40.078125 11.328125
Q 45.015625 15.765625 45.015625 23.390625
Q 45.015625 31 40.078125 35.4375
Q 35.15625 39.890625 26.703125 39.890625
Q 22.75 39.890625 18.8125 39.015625
Q 14.890625 38.140625 10.796875 36.28125
z
" id="DejaVuSans-35"/>
      </defs>
      <g transform="translate(13.5625 202.013537)scale(0.1 -0.1)">
       <use xlink:href="#DejaVuSans-35"/>
       <use x="63.623047" xlink:href="#DejaVuSans-30"/>
      </g>
     </g>
    </g>
    <g id="ytick_3">
     <g id="line2d_11">
      <g>
       <use style="stroke:#000000;stroke-width:0.8;" x="33.2875" xlink:href="#m61131a6bdf" y="168.288637"/>
      </g>
     </g>
     <g id="text_11">
      <!-- 100 -->
      <g transform="translate(7.2 172.087856)scale(0.1 -0.1)">
       <use xlink:href="#DejaVuSans-31"/>
       <use x="63.623047" xlink:href="#DejaVuSans-30"/>
       <use x="127.246094" xlink:href="#DejaVuSans-30"/>
      </g>
     </g>
    </g>
    <g id="ytick_4">
     <g id="line2d_12">
      <g>
       <use style="stroke:#000000;stroke-width:0.8;" x="33.2875" xlink:href="#m61131a6bdf" y="138.362956"/>
      </g>
     </g>
     <g id="text_12">
      <!-- 150 -->
      <g transform="translate(7.2 142.162175)scale(0.1 -0.1)">
       <use xlink:href="#DejaVuSans-31"/>
       <use x="63.623047" xlink:href="#DejaVuSans-35"/>
       <use x="127.246094" xlink:href="#DejaVuSans-30"/>
      </g>
     </g>
    </g>
    <g id="ytick_5">
     <g id="line2d_13">
      <g>
       <use style="stroke:#000000;stroke-width:0.8;" x="33.2875" xlink:href="#m61131a6bdf" y="108.437275"/>
      </g>
     </g>
     <g id="text_13">
      <!-- 200 -->
      <g transform="translate(7.2 112.236494)scale(0.1 -0.1)">
       <use xlink:href="#DejaVuSans-32"/>
       <use x="63.623047" xlink:href="#DejaVuSans-30"/>
       <use x="127.246094" xlink:href="#DejaVuSans-30"/>
      </g>
     </g>
    </g>
    <g id="ytick_6">
     <g id="line2d_14">
      <g>
       <use style="stroke:#000000;stroke-width:0.8;" x="33.2875" xlink:href="#m61131a6bdf" y="78.511594"/>
      </g>
     </g>
     <g id="text_14">
      <!-- 250 -->
      <g transform="translate(7.2 82.310812)scale(0.1 -0.1)">
       <use xlink:href="#DejaVuSans-32"/>
       <use x="63.623047" xlink:href="#DejaVuSans-35"/>
       <use x="127.246094" xlink:href="#DejaVuSans-30"/>
      </g>
     </g>
    </g>
    <g id="ytick_7">
     <g id="line2d_15">
      <g>
       <use style="stroke:#000000;stroke-width:0.8;" x="33.2875" xlink:href="#m61131a6bdf" y="48.585912"/>
      </g>
     </g>
     <g id="text_15">
      <!-- 300 -->
      <g transform="translate(7.2 52.385131)scale(0.1 -0.1)">
       <use xlink:href="#DejaVuSans-33"/>
       <use x="63.623047" xlink:href="#DejaVuSans-30"/>
       <use x="127.246094" xlink:href="#DejaVuSans-30"/>
      </g>
     </g>
    </g>
    <g id="ytick_8">
     <g id="line2d_16">
      <g>
       <use style="stroke:#000000;stroke-width:0.8;" x="33.2875" xlink:href="#m61131a6bdf" y="18.660231"/>
      </g>
     </g>
     <g id="text_16">
      <!-- 350 -->
      <g transform="translate(7.2 22.45945)scale(0.1 -0.1)">
       <use xlink:href="#DejaVuSans-33"/>
       <use x="63.623047" xlink:href="#DejaVuSans-35"/>
       <use x="127.246094" xlink:href="#DejaVuSans-30"/>
      </g>
     </g>
    </g>
   </g>
   <g id="patch_203">
    <path d="M 33.2875 228.14
L 33.2875 10.7
" style="fill:none;stroke:#000000;stroke-linecap:square;stroke-linejoin:miter;stroke-width:0.8;"/>
   </g>
   <g id="patch_204">
    <path d="M 368.0875 228.14
L 368.0875 10.7
" style="fill:none;stroke:#000000;stroke-linecap:square;stroke-linejoin:miter;stroke-width:0.8;"/>
   </g>
   <g id="patch_205">
    <path d="M 33.2875 228.14
L 368.0875 228.14
" style="fill:none;stroke:#000000;stroke-linecap:square;stroke-linejoin:miter;stroke-width:0.8;"/>
   </g>
   <g id="patch_206">
    <path d="M 33.2875 10.7
L 368.0875 10.7
" style="fill:none;stroke:#000000;stroke-linecap:square;stroke-linejoin:miter;stroke-width:0.8;"/>
   </g>
  </g>
 </g>
 <defs>
  <clipPath id="pe64681dc40">
   <rect height="217.44" width="334.8" x="33.2875" y="10.7"/>
  </clipPath>
 </defs>
</svg>
